<svg width="91" height="82" viewBox="0 0 91 82" fill="none" xmlns="http://www.w3.org/2000/svg">
<path d="M45.5 7.69452C55.9087 -2.56482 72.7848 -2.56486 83.1935 7.69452C93.6022 17.9539 93.6022 34.5878 83.1935 44.8473L46.904 80.6162C46.1253 81.3837 44.8747 81.3837 44.096 80.6162L7.80651 44.8473C-2.60215 34.5878 -2.60219 17.9539 7.80651 7.69452C18.2152 -2.56486 35.0913 -2.56482 45.5 7.69452ZM76.4084 14.3823C69.7468 7.81634 58.9467 7.81632 52.2851 14.3823L46.9039 19.6856C46.1252 20.4529 44.8748 20.4529 44.0962 19.6856L38.7149 14.3823C32.0533 7.81632 21.2532 7.81634 14.5916 14.3823C7.9301 20.9483 7.93008 31.5934 14.5916 38.1595L44.096 67.2406C44.8747 68.0081 46.1253 68.0081 46.904 67.2406L76.4084 38.1595C83.0699 31.5934 83.0699 20.9483 76.4084 14.3823Z" fill="#00BD7C"/>
<path d="M62.9863 23.3014C64.7436 21.5441 67.5932 21.5441 69.3505 23.3014C71.1075 25.0587 71.1075 27.9074 69.3505 29.6647L47.0889 51.9263C46.3098 52.7054 45.0473 52.7077 44.2654 51.9313L28.6513 36.4264C26.8879 34.6752 26.8778 31.8256 28.6289 30.0622C30.38 28.2987 33.2296 28.2886 34.9931 30.0397L44.243 39.2252C45.0248 40.0016 46.2873 39.9994 47.0665 39.2203L62.9863 23.3014Z" fill="#00B8DB"/>
</svg>
