<svg width="320" height="568" viewBox="0 0 320 568" fill="none" xmlns="http://www.w3.org/2000/svg">
<g clip-path="url(#clip0_6_45)">
<rect width="320" height="568" fill="url(#paint0_linear_6_45)"/>
<path d="M228.299 89.676C257.621 60.7747 305.162 60.7746 334.484 89.676C363.806 118.577 363.806 165.437 334.484 194.338L229.703 297.616C228.924 298.384 227.673 298.384 226.895 297.616L122.113 194.338C92.7915 165.437 92.7914 118.577 122.113 89.676C151.436 60.7746 198.977 60.7747 228.299 89.676ZM315.37 108.516C296.604 90.0192 266.179 90.0191 247.413 108.516L229.703 125.97C228.924 126.737 227.674 126.737 226.895 125.97L209.185 108.516C190.418 90.0191 159.994 90.0192 141.228 108.516C122.462 127.013 122.462 157.001 141.228 175.498L226.895 259.936C227.673 260.704 228.924 260.704 229.703 259.936L315.37 175.498C334.136 157.001 334.136 127.013 315.37 108.516Z" fill="white" fill-opacity="0.3"/>
<path d="M277.559 133.642C282.51 128.691 290.537 128.691 295.487 133.642C300.437 138.592 300.437 146.617 295.487 151.567L230.214 216.841C229.435 217.62 228.172 217.622 227.391 216.846L180.835 170.616C175.867 165.683 175.839 157.655 180.772 152.687C185.705 147.719 193.732 147.691 198.7 152.624L227.327 181.052C228.109 181.828 229.372 181.826 230.151 181.047L277.559 133.642Z" fill="white" fill-opacity="0.3"/>
<path d="M72.458 446.507V481.133H65.0566V466.071H57.1895V460.016H65.0566V446.507H72.458ZM57.707 449.975C57.707 462.914 49.8398 472.334 35.8135 476.63L32.8115 470.678C42.3091 467.857 48.2612 462.5 49.5293 456.03H35.2959V449.975H57.707ZM73.6484 487.24V493.192H40.7822V477.613H48.3906V487.24H73.6484ZM117.473 446.455V457.272H123.632V463.328H117.473V473.731H110.02V446.455H117.473ZM104.171 449.457C104.171 462.345 96.4074 471.195 82.174 475.077L79.2238 469.073C89.3166 466.485 94.9064 461.439 95.9933 455.409H81.5011V449.457H104.171ZM101.79 474.301C111.521 474.301 117.99 478.131 117.99 484.135C117.99 490.242 111.521 494.021 101.79 494.021C92.1115 494.021 85.5382 490.242 85.5382 484.135C85.5382 478.131 92.1115 474.301 101.79 474.301ZM101.79 480.046C96.1486 480.046 92.8879 481.495 92.9396 484.135C92.8879 486.826 96.1486 488.275 101.79 488.275C107.38 488.275 110.589 486.826 110.641 484.135C110.589 481.495 107.38 480.046 101.79 480.046ZM170.769 452.407V458.411H164.868V462.655H170.769V468.814H164.868V474.404H157.415V446.455H164.868V452.407H170.769ZM164.868 476.216V493.969H157.415V482.22H132.623V476.216H164.868ZM140.387 448.991C147.788 448.991 153.482 453.908 153.482 460.688C153.482 467.572 147.788 472.438 140.387 472.438C132.882 472.438 127.137 467.572 127.189 460.688C127.137 453.908 132.882 448.991 140.387 448.991ZM140.387 455.357C136.971 455.357 134.435 457.221 134.487 460.688C134.435 464.26 136.971 466.123 140.387 466.123C143.648 466.123 146.184 464.26 146.236 460.688C146.184 457.221 143.648 455.357 140.387 455.357ZM217.699 469.332V475.232H174.429V469.332H192.286V463.38H199.739V469.332H217.699ZM199.791 448.629C199.791 453.908 204.086 459.136 215.525 460.481L212.678 466.278C204.526 465.114 198.885 461.905 195.909 457.324C192.907 461.853 187.291 465.114 179.191 466.278L176.551 460.481C187.731 459.136 192.182 453.649 192.182 448.629V447.283H199.791V448.629ZM212.523 478.183V493.969H205.07V483.928H179.243V478.183H212.523Z" fill="white"/>
<path d="M40.4531 414.059C44.4707 414.059 47.3281 415.992 47.3281 418.936C47.3281 421.729 44.793 423.565 41.1406 423.77V428.002H49.1973V429.162H31.8379V428.002H39.7871V423.77C36.1455 423.576 33.5996 421.729 33.5996 418.936C33.5996 415.992 36.457 414.059 40.4531 414.059ZM40.4531 415.176C37.252 415.176 34.8887 416.701 34.8887 418.936C34.8887 421.17 37.252 422.695 40.4531 422.695C43.6543 422.695 46.0391 421.17 46.0391 418.936C46.0391 416.701 43.6543 415.176 40.4531 415.176ZM66.127 417.518V418.656H53.2578V413.049H54.5684V417.518H66.127ZM68.168 420.719V421.857H50.8301V420.719H68.168ZM65.9121 423.748V427.98H54.4609V430.301H66.5996V431.396H53.1074V426.928H64.5801V424.844H53.0645V423.748H65.9121ZM85.1191 421.729V422.846H79.168V428.045H87.2246V429.205H69.8652V428.045H77.8145V422.846H72.1426V414.316H84.9258V415.455H73.4961V421.729H85.1191ZM108.945 412.727V419.129H111.867V420.289H108.945V426.949H107.592V412.727H108.945ZM105.551 415.154V416.293H94.25V415.154H99.2344V412.748H100.566V415.154H105.551ZM99.9004 417.453C102.586 417.453 104.412 418.828 104.412 420.955C104.412 423.082 102.586 424.436 99.9004 424.436C97.1719 424.436 95.3672 423.082 95.3672 420.955C95.3672 418.828 97.1719 417.453 99.9004 417.453ZM99.9004 418.549C97.9453 418.549 96.6348 419.516 96.6562 420.955C96.6348 422.373 97.9453 423.34 99.9004 423.318C101.834 423.34 103.123 422.373 103.145 420.955C103.123 419.516 101.834 418.549 99.9004 418.549ZM109.869 430.086V431.225H97.2148V425.789H98.5469V430.086H109.869ZM134.125 412.727V426.777H132.771V419.322H127.98V423.447H119.494V413.994H120.848V417.518H126.627V413.994H127.98V418.162H132.771V412.727H134.125ZM134.576 430.086V431.225H121.986V425.402H123.34V430.086H134.576ZM120.848 422.309H126.627V418.592H120.848V422.309ZM140.291 428.689L138.723 434.254H137.455L138.658 428.689H140.291Z" fill="white"/>
</g>
<defs>
<linearGradient id="paint0_linear_6_45" x1="320" y1="0" x2="42" y2="568" gradientUnits="userSpaceOnUse">
<stop offset="0.317308" stop-color="#00D492"/>
<stop offset="0.995192" stop-color="#03C9B0"/>
</linearGradient>
<clipPath id="clip0_6_45">
<rect width="320" height="568" fill="white"/>
</clipPath>
</defs>
</svg>
